TITLE ""
FILE "1Q_t_0010-0019.mp3" MP3
  TRACK 01 AUDIO
    TITLE "1Q_t_0010-0019_01"
    INDEX 01 00:00:00
  TRACK 02 AUDIO
    TITLE "1Q_t_0010-0019_02"
    INDEX 01 00:01:22
  TRACK 03 AUDIO
    TITLE "1Q_t_0010-0019_03"
    INDEX 01 00:01:51
  TRACK 04 AUDIO
    TITLE "1Q_t_0010-0019_04"
    INDEX 01 00:06:19
  TRACK 05 AUDIO
    TITLE "1Q_t_0010-0019_05"
    INDEX 01 00:06:46
  TRACK 06 AUDIO
    TITLE "1Q_t_0010-0019_06"
    INDEX 01 00:12:23
  TRACK 07 AUDIO
    TITLE "1Q_t_0010-0019_07"
    INDEX 01 00:13:05
  TRACK 08 AUDIO
    TITLE "1Q_t_0010-0019_08"
    INDEX 01 00:14:14
  TRACK 09 AUDIO
    TITLE "1Q_t_0010-0019_09"
    INDEX 01 00:14:44
  TRACK 10 AUDIO
    TITLE "1Q_t_0010-0019_10"
    INDEX 01 00:17:09
  TRACK 11 AUDIO
    TITLE "1Q_t_0010-0019_11"
    INDEX 01 00:17:36
  TRACK 12 AUDIO
    TITLE "1Q_t_0010-0019_12"
    INDEX 01 00:22:02
  TRACK 13 AUDIO
    TITLE "1Q_t_0010-0019_13"
    INDEX 01 00:22:57
  TRACK 14 AUDIO
    TITLE "1Q_t_0010-0019_14"
    INDEX 01 00:24:25
  TRACK 15 AUDIO
    TITLE "1Q_t_0010-0019_15"
    INDEX 01 00:24:50
  TRACK 16 AUDIO
    TITLE "1Q_t_0010-0019_16"
    INDEX 01 00:29:00
  TRACK 17 AUDIO
    TITLE "1Q_t_0010-0019_17"
    INDEX 01 00:29:28
  TRACK 18 AUDIO
    TITLE "1Q_t_0010-0019_18"
    INDEX 01 00:36:36
  TRACK 19 AUDIO
    TITLE "1Q_t_0010-0019_19"
    INDEX 01 00:37:13
  TRACK 20 AUDIO
    TITLE "1Q_t_0010-0019_20"
    INDEX 01 00:38:23
  TRACK 21 AUDIO
    TITLE "1Q_t_0010-0019_21"
    INDEX 01 00:38:50
  TRACK 22 AUDIO
    TITLE "1Q_t_0010-0019_22"
    INDEX 01 00:40:04
  TRACK 23 AUDIO
    TITLE "1Q_t_0010-0019_23"
    INDEX 01 00:40:31
  TRACK 24 AUDIO
    TITLE "1Q_t_0010-0019_24"
    INDEX 01 00:45:48
  TRACK 25 AUDIO
    TITLE "1Q_t_0010-0019_25"
    INDEX 01 00:46:28
  TRACK 26 AUDIO
    TITLE "1Q_t_0010-0019_26"
    INDEX 01 00:47:29
  TRACK 27 AUDIO
    TITLE "1Q_t_0010-0019_27"
    INDEX 01 00:47:59
  TRACK 28 AUDIO
    TITLE "1Q_t_0010-0019_28"
    INDEX 01 00:51:41
  TRACK 29 AUDIO
    TITLE "1Q_t_0010-0019_29"
    INDEX 01 00:51:66
  TRACK 30 AUDIO
    TITLE "1Q_t_0010-0019_30"
    INDEX 01 00:58:18
  TRACK 31 AUDIO
    TITLE "1Q_t_0010-0019_31"
    INDEX 01 00:58:70
  TRACK 32 AUDIO
    TITLE "1Q_t_0010-0019_32"
    INDEX 01 01:00:20
  TRACK 33 AUDIO
    TITLE "1Q_t_0010-0019_33"
    INDEX 01 01:00:48
  TRACK 34 AUDIO
    TITLE "1Q_t_0010-0019_34"
    INDEX 01 01:03:48
  TRACK 35 AUDIO
    TITLE "1Q_t_0010-0019_35"
    INDEX 01 01:04:01
  TRACK 36 AUDIO
    TITLE "1Q_t_0010-0019_36"
    INDEX 01 01:08:12
  TRACK 37 AUDIO
    TITLE "1Q_t_0010-0019_37"
    INDEX 01 01:08:67
  TRACK 38 AUDIO
    TITLE "1Q_t_0010-0019_38"
    INDEX 01 01:10:11
  TRACK 39 AUDIO
    TITLE "1Q_t_0010-0019_39"
    INDEX 01 01:10:40
  TRACK 40 AUDIO
    TITLE "1Q_t_0010-0019_40"
    INDEX 01 01:13:62
  TRACK 41 AUDIO
    TITLE "1Q_t_0010-0019_41"
    INDEX 01 01:14:15
  TRACK 42 AUDIO
    TITLE "1Q_t_0010-0019_42"
    INDEX 01 01:20:49
  TRACK 43 AUDIO
    TITLE "1Q_t_0010-0019_43"
    INDEX 01 01:21:22
  TRACK 44 AUDIO
    TITLE "1Q_t_0010-0019_44"
    INDEX 01 01:22:43
  TRACK 45 AUDIO
    TITLE "1Q_t_0010-0019_45"
    INDEX 01 01:22:71
  TRACK 46 AUDIO
    TITLE "1Q_t_0010-0019_46"
    INDEX 01 01:24:70
  TRACK 47 AUDIO
    TITLE "1Q_t_0010-0019_47"
    INDEX 01 01:25:22
  TRACK 48 AUDIO
    TITLE "1Q_t_0010-0019_48"
    INDEX 01 01:31:21
  TRACK 49 AUDIO
    TITLE "1Q_t_0010-0019_49"
    INDEX 01 01:32:03
  TRACK 50 AUDIO
    TITLE "1Q_t_0010-0019_50"
    INDEX 01 01:33:26
  TRACK 51 AUDIO
    TITLE "1Q_t_0010-0019_51"
    INDEX 01 01:33:55
  TRACK 52 AUDIO
    TITLE "1Q_t_0010-0019_52"
    INDEX 01 01:35:17
  TRACK 53 AUDIO
    TITLE "1Q_t_0010-0019_53"
    INDEX 01 01:35:44
  TRACK 54 AUDIO
    TITLE "1Q_t_0010-0019_54"
    INDEX 01 01:40:08
  TRACK 55 AUDIO
    TITLE "1Q_t_0010-0019_55"
    INDEX 01 01:40:63
  TRACK 56 AUDIO
    TITLE "1Q_t_0010-0019_56"
    INDEX 01 01:42:01
  TRACK 57 AUDIO
    TITLE "1Q_t_0010-0019_57"
    INDEX 01 01:42:31
  TRACK 58 AUDIO
    TITLE "1Q_t_0010-0019_58"
    INDEX 01 01:45:09
  TRACK 59 AUDIO
    TITLE "1Q_t_0010-0019_59"
    INDEX 01 01:45:37
  TRACK 60 AUDIO
    TITLE "1Q_t_0010-0019_60"
    INDEX 01 01:49:64
